<?xml version="1.0" encoding="utf-8"?>
<!-- Generator: Adobe Illustrator 17.0.0, SVG Export Plug-In . SVG Version: 6.00 Build 0)  -->
<!DOCTYPE svg PUBLIC "-//W3C//DTD SVG 1.1//EN" "http://www.w3.org/Graphics/SVG/1.1/DTD/svg11.dtd">
<svg version="1.1" id="Capa_1" xmlns="http://www.w3.org/2000/svg" xmlns:xlink="http://www.w3.org/1999/xlink" x="0px" y="0px"
	 width="151.554px" height="19px" viewBox="-66.277 66.277 151.554 19" enable-background="new -66.277 66.277 151.554 19"
	 xml:space="preserve">
<g>
	<path fill="#2E2E2E" d="M-58.908,79.057c0,2.199-0.662,2.65-1.657,2.65c-1.157,0-1.587-0.411-1.587-1.518
		c0-0.482,0.09-1.149,0.219-1.622l0.121-0.441l-4.04,0.221l-0.078,0.195c-0.217,0.543-0.347,1.202-0.347,1.762
		c0,2.382,1.501,4.926,5.712,4.926c4.115,0,6.29-1.959,6.29-5.665V66.554h-4.633V79.057z"/>
	<path fill="#2E2E2E" d="M-45.414,66.277c-5.054,0-7.837,3.357-7.837,9.454c0,6.57,2.417,9.5,7.837,9.5c5.2,0,7.837-3.196,7.837-9.5
		C-37.577,69.458-40.214,66.277-45.414,66.277z M-45.553,69.524c2.172,0,3.227,2.045,3.227,6.253c0,5.415-1.562,6.161-3.25,6.161
		c-1.257,0-2.927-0.639-2.927-6.161C-48.503,70.587-47.324,69.524-45.553,69.524z"/>
	<path fill="#2E2E2E" d="M-33.335,66.554l-5.079,18.4h4.594l0.924-3.626h4.321l1.016,3.626h4.703l-5.103-18.4
		C-27.959,66.554-33.335,66.554-33.335,66.554z M-29.55,77.734h-2.451c0.15-0.664,0.458-2.008,0.691-2.959
		c0.148-0.558,0.356-1.371,0.535-2.154c0.175,0.774,0.376,1.579,0.512,2.127C-30.027,75.705-29.707,77.064-29.55,77.734z"/>
	<path fill="#2E2E2E" d="M-12.951,76.182c-0.001-0.003-0.003-0.006-0.004-0.009c-2.009-3.672-5.151-9.446-5.151-9.447l-0.094-0.172
		h-4.06v18.4h4.194v-9.339c0-0.073-0.001-0.158-0.004-0.25c0.054,0.11,0.103,0.21,0.147,0.293c1.941,3.558,5.013,9.126,5.013,9.126
		l0.094,0.17h4.059v-18.4h-4.194C-12.951,66.554-12.951,76.182-12.951,76.182z"/>
	<path fill="#2E2E2E" d="M9.182,75.29c1.414-0.63,2.177-1.929,2.177-3.763c0-3.067-2.401-4.973-6.266-4.973h-6.336v18.4h7.144
		c3.964,0,6.059-1.847,6.059-5.342C11.959,77.2,10.641,75.859,9.182,75.29z M3.274,76.915h1.564c1.438,0,2.442,0.985,2.442,2.396
		c0,1.587-0.761,2.327-2.396,2.327h-1.61C3.274,81.638,3.274,76.915,3.274,76.915z M4.561,73.715H3.274v-3.868h1.241
		c1.517,0,2.165,0.564,2.165,1.888C6.679,73.371,5.527,73.715,4.561,73.715z"/>
	<path fill="#2E2E2E" d="M20.081,66.277c-5.054,0-7.837,3.357-7.837,9.454c0,6.57,2.417,9.5,7.837,9.5
		c5.201,0,7.837-3.196,7.837-9.5C27.918,69.458,25.281,66.277,20.081,66.277z M19.942,69.524c2.172,0,3.227,2.045,3.227,6.253
		c0,5.415-1.562,6.161-3.25,6.161c-1.257,0-2.927-0.639-2.927-6.161C16.992,70.587,18.172,69.524,19.942,69.524z"/>
	<path fill="#2E2E2E" d="M37.85,74.154l-2.912-1.178c-1.778-0.716-2.265-1.176-2.265-2.142c0-0.876,0.663-1.38,1.819-1.38
		c1.357,0,1.911,0.547,1.911,1.888c0,0.283-0.033,0.532-0.102,0.76l-0.13,0.437l4.148-0.111l0.075-0.214
		c0.147-0.417,0.25-0.966,0.25-1.334c-0.001-2.753-2.352-4.603-5.852-4.603c-3.937,0-6.382,2.038-6.382,5.319
		c0,2.365,1.043,3.961,3.1,4.743l2.611,0.993c2.656,1.008,3.16,1.749,3.16,2.764c0,0.81-0.256,1.888-2.465,1.888
		c-1.939,0-2.188-0.947-2.188-1.772c0-0.498,0.103-0.786,0.212-1.09l0.163-0.456l-4.422,0.138l-0.088,0.317
		c-0.108,0.386-0.22,0.786-0.22,1.391c0,2.999,2.376,4.719,6.52,4.719c4.603,0,6.936-1.968,6.936-5.851
		C41.728,77.02,40.351,75.164,37.85,74.154z"/>
	<path fill="#2E2E2E" d="M56.45,77.828l-4.347-0.356l0.028,0.385c0.126,1.68-0.076,2.742-0.634,3.344
		c-0.416,0.449-1.061,0.667-1.97,0.667c-1.968,0-2.905-0.895-2.905-5.976c0-5.39,0.861-6.3,2.789-6.3
		c0.826,0,1.417,0.201,1.805,0.613c0.516,0.548,0.724,1.517,0.637,2.964l-0.023,0.372l4.457-0.271l0.014-0.296
		c0.099-2.078-0.405-3.714-1.502-4.865c-1.159-1.216-2.956-1.832-5.341-1.832c-5.032,0-7.583,3.297-7.583,9.8
		c0,6.159,2.548,9.154,7.791,9.154c2.283,0,4.03-0.615,5.191-1.829c1.167-1.22,1.707-2.997,1.606-5.283L56.45,77.828z"/>
	<polygon fill="#2E2E2E" points="66.912,73.415 61.981,73.415 61.981,66.554 57.395,66.554 57.395,84.954 61.981,84.954 
		61.981,77.193 66.912,77.193 66.912,84.954 71.521,84.954 71.521,66.554 66.912,66.554 	"/>
	<path fill="#2E2E2E" d="M82.152,79.027c-1.723,0-3.124,1.402-3.124,3.125s1.402,3.125,3.124,3.125c1.723,0,3.125-1.402,3.125-3.125
		S83.875,79.027,82.152,79.027z"/>
</g>
</svg>
