<?xml version="1.0" encoding="utf-8"?>
<!-- Generator: Adobe Illustrator 17.0.0, SVG Export Plug-In . SVG Version: 6.00 Build 0)  -->
<!DOCTYPE svg PUBLIC "-//W3C//DTD SVG 1.1//EN" "http://www.w3.org/Graphics/SVG/1.1/DTD/svg11.dtd">
<svg version="1.1" id="Capa_1" xmlns="http://www.w3.org/2000/svg" xmlns:xlink="http://www.w3.org/1999/xlink" x="0px" y="0px"
	 width="19px" height="151.554px" viewBox="0 0 19 151.554" enable-background="new 0 0 19 151.554" xml:space="preserve">
<g>
	<path fill="#2E2E2E" d="M12.78,144.185c2.199,0,2.65,0.662,2.65,1.657c0,1.157-0.411,1.587-1.518,1.587
		c-0.482,0-1.149-0.09-1.622-0.219l-0.441-0.121l0.221,4.04l0.195,0.078c0.543,0.217,1.202,0.347,1.762,0.347
		c2.382,0,4.926-1.501,4.926-5.712c0-4.115-1.959-6.29-5.665-6.29H0.277v4.633H12.78z"/>
	<path fill="#2E2E2E" d="M0,130.691c0,5.054,3.357,7.837,9.454,7.837c6.57,0,9.5-2.417,9.5-7.837c0-5.2-3.196-7.837-9.5-7.837
		C3.181,122.854,0,125.491,0,130.691z M3.247,130.83c0-2.172,2.045-3.227,6.253-3.227c5.415,0,6.161,1.562,6.161,3.25
		c0,1.257-0.639,2.927-6.161,2.927C4.31,133.78,3.247,132.601,3.247,130.83z"/>
	<path fill="#2E2E2E" d="M0.277,118.612l18.4,5.079v-4.594l-3.626-0.924v-4.321l3.626-1.016v-4.703l-18.4,5.103V118.612z
		 M11.457,114.827v2.451c-0.664-0.15-2.008-0.458-2.959-0.691c-0.558-0.148-1.371-0.356-2.154-0.535
		c0.774-0.175,1.579-0.376,2.127-0.512C9.428,115.304,10.787,114.984,11.457,114.827z"/>
	<path fill="#2E2E2E" d="M9.905,98.228c-0.003,0.001-0.006,0.003-0.009,0.004c-3.672,2.009-9.446,5.151-9.447,5.151l-0.172,0.094
		v4.06h18.4v-4.194H9.338c-0.073,0-0.158,0.001-0.25,0.004c0.11-0.054,0.21-0.103,0.293-0.147c3.558-1.941,9.126-5.013,9.126-5.013
		l0.17-0.094v-4.059h-18.4v4.194H9.905z"/>
	<path fill="#2E2E2E" d="M9.013,76.095c-0.63-1.414-1.929-2.177-3.763-2.177c-3.067,0-4.973,2.401-4.973,6.266v6.336h18.4v-7.144
		c0-3.964-1.847-6.059-5.342-6.059C10.923,73.318,9.582,74.636,9.013,76.095z M10.638,82.003v-1.564
		c0-1.438,0.985-2.442,2.396-2.442c1.587,0,2.327,0.761,2.327,2.396v1.61H10.638z M7.438,80.716v1.287H3.57v-1.241
		c0-1.517,0.564-2.165,1.888-2.165C7.094,78.598,7.438,79.75,7.438,80.716z"/>
	<path fill="#2E2E2E" d="M0,65.196c0,5.054,3.357,7.837,9.454,7.837c6.57,0,9.5-2.417,9.5-7.837c0-5.201-3.196-7.837-9.5-7.837
		C3.181,57.359,0,59.996,0,65.196z M3.247,65.335c0-2.172,2.045-3.227,6.253-3.227c5.415,0,6.161,1.562,6.161,3.25
		c0,1.257-0.639,2.927-6.161,2.927C4.31,68.285,3.247,67.105,3.247,65.335z"/>
	<path fill="#2E2E2E" d="M7.877,47.427l-1.178,2.912c-0.716,1.778-1.176,2.265-2.142,2.265c-0.876,0-1.38-0.663-1.38-1.819
		c0-1.357,0.547-1.911,1.888-1.911c0.283,0,0.532,0.033,0.76,0.102l0.437,0.13l-0.111-4.148l-0.214-0.075
		c-0.417-0.147-0.966-0.25-1.334-0.25C1.85,44.634,0,46.985,0,50.485c0,3.937,2.038,6.382,5.319,6.382
		c2.365,0,3.961-1.043,4.743-3.1l0.993-2.611c1.008-2.656,1.749-3.16,2.764-3.16c0.81,0,1.888,0.256,1.888,2.465
		c0,1.939-0.947,2.188-1.772,2.188c-0.498,0-0.786-0.103-1.09-0.212l-0.456-0.163l0.138,4.422l0.317,0.088
		c0.386,0.108,0.786,0.22,1.391,0.22c2.999,0,4.719-2.376,4.719-6.52c0-4.603-1.968-6.936-5.851-6.936
		C10.743,43.549,8.887,44.926,7.877,47.427z"/>
	<path fill="#2E2E2E" d="M11.551,28.827l-0.356,4.347l0.385-0.028c1.68-0.126,2.742,0.076,3.344,0.634
		c0.449,0.416,0.667,1.061,0.667,1.97c0,1.968-0.895,2.905-5.976,2.905c-5.39,0-6.3-0.861-6.3-2.789
		c0-0.826,0.201-1.417,0.613-1.805c0.548-0.516,1.517-0.724,2.964-0.637l0.372,0.023L6.993,28.99l-0.296-0.014
		c-2.078-0.099-3.714,0.405-4.865,1.502C0.616,31.637,0,33.434,0,35.819c0,5.032,3.297,7.583,9.8,7.583
		c6.159,0,9.154-2.548,9.154-7.791c0-2.283-0.615-4.03-1.829-5.191c-1.22-1.167-2.997-1.707-5.283-1.606L11.551,28.827z"/>
	<polygon fill="#2E2E2E" points="7.138,18.365 7.138,23.296 0.277,23.296 0.277,27.882 18.677,27.882 18.677,23.296 10.916,23.296 
		10.916,18.365 18.677,18.365 18.677,13.756 0.277,13.756 0.277,18.365 	"/>
	<path fill="#2E2E2E" d="M12.75,3.125c0,1.723,1.402,3.124,3.125,3.124S19,4.847,19,3.125C19,1.402,17.598,0,15.875,0
		C14.152,0,12.75,1.402,12.75,3.125z"/>
</g>
</svg>
