<?xml version="1.0" encoding="utf-8"?>
<!-- Generator: Adobe Illustrator 17.0.0, SVG Export Plug-In . SVG Version: 6.00 Build 0)  -->
<!DOCTYPE svg PUBLIC "-//W3C//DTD SVG 1.1//EN" "http://www.w3.org/Graphics/SVG/1.1/DTD/svg11.dtd">
<svg version="1.1" id="Capa_1" xmlns="http://www.w3.org/2000/svg" xmlns:xlink="http://www.w3.org/1999/xlink" x="0px" y="0px"
	 width="14.246px" height="9.641px" viewBox="0 0 14.246 9.641" enable-background="new 0 0 14.246 9.641" xml:space="preserve">
<g>
	<g>
		<path d="M14.197,5.328H0.049C0.03,5.309,0.019,5.298,0,5.279v-0.92C0.019,4.34,0.03,4.33,0.049,4.311h14.148
			c0.019,0.019,0.03,0.03,0.049,0.049v0.92C14.227,5.298,14.216,5.309,14.197,5.328z"/>
	</g>
	<g>
		<path d="M14.197,1.017H0.049C0.03,0.998,0.019,0.988,0,0.969v-0.92C0.019,0.03,0.03,0.019,0.049,0h14.148
			c0.019,0.019,0.03,0.03,0.049,0.049v0.92C14.227,0.988,14.216,0.998,14.197,1.017z"/>
	</g>
	<g>
		<path d="M14.197,9.64H0.049C0.03,9.621,0.019,9.611,0,9.592v-0.92c0.019-0.019,0.03-0.03,0.049-0.049h14.148
			c0.019,0.019,0.03,0.03,0.049,0.049v0.92C14.227,9.611,14.216,9.621,14.197,9.64z"/>
	</g>
</g>
</svg>
